# xmcd
# Track frame offsets:
# 150
# 16482
# 29410
# 44212
# 58000
# 72052
# 86282
# 100350
# 111362
# 123630
# 137622
# 154355
# 165870
# 180967
# 199309
# 213025
# 226682
# 237895
# 251565
# 264925
# 278350
#
# Disc length: 3877 seconds
# Revision: 0
# Processed by: cddbd v1.5.1PL0 Copyright (c) Steve Scherf et al.
# Submitted via: VisiTrax 2.9.10.228 - For more info visit www.synapsa.com
#
DISCID=180f2315
DTITLE=Various Artist - Country #1's
DYEAR=1997
DGENRE=
TTITLE0=Exile - She's A Miracle
TTITLE1=Janie Fricke - Your Hearts  Not In It
TTITLE2=George Jones - He Stopped Lovin Her Today
TTITLE3=Tonya Tucker - Blood Red And Goin Down
TTITLE4=Ricky Van Shelton - I'll Leave This World Loving You
TTITLE5=T.Graham Brown - Hell And High Water
TTITLE6=Lee Greenwood - Dixie Road
TTITLE7=Vern Gosdin - Set'Em Up Joe
TTITLE8=Merle Haggard - Okie From Muskogee
TTITLE9=Ronnie McDowell - You're Gonna Ruin My Bad Reputaion
TTITLE10=Eddy Raven - Joe Knows How To Live
TTITLE11=The Kendalls - Heavens Just A Sin Away
TTITLE12=Mickey Gilley - Fool For Your Love
TTITLE13=Johnny Cash - One Piece At A Time
TTITLE14=George Jones and Tammy Wynette - Golden Ring
TTITLE15=Willie Nelson and Leon Russell - Heartbreak Hotel
TTITLE16=Cinway Twitty - Hello Darlin'
TTITLE17=Mel McDaniel - Babby's Got Her Blue Jeans On
TTITLE18=Tammy Wynette - D-I-V-O-R-C-E
TTITLE19=B.J. Thomas - New Looks From An Old Lover
TTITLE20=Johnny Paycheck - Take This Job And Shove It
EXTD=
EXTT0=
EXTT1=
EXTT2=
EXTT3=
EXTT4=
EXTT5=
EXTT6=
EXTT7=
EXTT8=
EXTT9=
EXTT10=
EXTT11=
EXTT12=
EXTT13=
EXTT14=
EXTT15=
EXTT16=
EXTT17=
EXTT18=
EXTT19=
EXTT20=
PLAYORDER=
